<svg width="1280" height="1204" viewBox="0 0 1280 1204" fill="none" xmlns="http://www.w3.org/2000/svg">
<path d="M590.913 439.468C578.592 470.557 550.577 465.619 538.11 459.265L291.699 329.483C277.521 322.395 254.884 307.78 277.765 306.02C293.606 305.433 342.546 317.996 365.036 324.351L552.044 386.675C569.401 392.297 601.473 410.725 590.913 439.468Z" fill="black"/>
<path d="M689.087 439.468C701.408 470.557 729.423 465.619 741.89 459.265L988.301 329.483C1002.48 322.395 1025.12 307.78 1002.23 306.02C986.394 305.433 937.454 317.996 914.964 324.351L727.956 386.675C710.599 392.297 678.527 410.725 689.087 439.468Z" fill="black"/>
<path d="M600.9 602.532C588.503 571.443 560.316 576.381 547.772 582.735L299.845 712.517C285.579 719.605 262.803 734.22 285.825 735.98C301.764 736.567 351.005 724.004 373.633 717.649L561.792 655.325C579.255 649.703 611.525 631.275 600.9 602.532Z" fill="black"/>
<path d="M679.1 602.532C691.497 571.443 719.684 576.381 732.228 582.735L980.155 712.517C994.421 719.605 1017.2 734.22 994.175 735.98C978.236 736.567 928.995 724.004 906.367 717.649L718.208 655.325C700.745 649.703 668.475 631.275 679.1 602.532Z" fill="black"/>
<path d="M155.232 290.441C130.561 352.327 184.112 406.599 213.971 426C128.212 391.816 120.967 315.981 128.065 282.337C144.218 210.874 232.327 182.878 263.165 180.668C294.004 178.458 362.288 179.931 399 213.821C357.883 190.246 305.507 193.193 284.458 197.613C251.662 202.77 179.902 228.556 155.232 290.441Z" fill="black"/>
<path d="M1124.88 290.441C1149.46 352.327 1096.1 406.599 1066.35 426C1151.8 391.816 1159.01 315.981 1151.94 282.337C1135.85 210.874 1048.06 182.878 1017.34 180.668C986.612 178.458 918.578 179.931 882 213.821C922.967 190.246 975.151 193.193 996.122 197.613C1028.8 202.77 1100.29 228.556 1124.88 290.441Z" fill="black"/>
<path d="M166.018 753.008C141.528 691.374 194.686 637.322 224.327 618C139.196 652.045 132.004 727.571 139.05 761.079C155.085 832.251 242.548 860.133 273.161 862.335C303.773 864.536 371.557 863.068 408 829.316C367.184 852.796 315.192 849.861 294.298 845.459C261.742 840.323 190.508 814.642 166.018 753.008Z" fill="black"/>
<path d="M1115.77 753.008C1140.44 691.374 1086.89 637.322 1057.03 618C1142.79 652.045 1150.03 727.571 1142.93 761.079C1126.78 832.251 1038.67 860.133 1007.83 862.335C976.996 864.536 908.712 863.068 872 829.316C913.117 852.796 965.493 849.861 986.542 845.459C1019.34 840.323 1091.1 814.642 1115.77 753.008Z" fill="black"/>
<ellipse cx="642" cy="337.5" rx="42" ry="40.5" fill="black"/>
<path d="M528.739 363.083L489.117 337.381C499.096 285.098 480.067 245.101 469.306 231.639C455.365 205.693 401.802 151.891 299.079 144.254C196.355 136.617 127.628 195.902 106.105 226.499C78.7123 263.46 47.8464 355.74 143.526 429.172C239.205 502.604 353.131 472.654 398.133 448.5C405.471 453.317 434.82 473.966 434.82 473.966C349.119 520.962 259.701 517.046 225.705 509.213C158.69 492.569 32.4281 437.984 29.0627 311.68C26.0103 197.126 135.21 134.219 186.083 119.287C235.243 102.153 357.19 85.0678 451.696 153.8C546.202 222.533 542.435 321.961 528.739 363.083Z" fill="black"/>
<path d="M751.261 363.083L790.883 337.381C780.904 285.098 799.933 245.101 810.694 231.639C824.635 205.693 878.198 151.891 980.921 144.254C1083.64 136.617 1152.37 195.902 1173.89 226.499C1201.29 263.46 1232.15 355.74 1136.47 429.172C1040.79 502.604 926.869 472.654 881.867 448.5C874.529 453.317 845.18 473.966 845.18 473.966C930.881 520.962 1020.3 517.046 1054.3 509.213C1121.31 492.569 1247.57 437.984 1250.94 311.68C1253.99 197.126 1144.79 134.219 1093.92 119.287C1044.76 102.153 922.81 85.0678 828.304 153.8C733.798 222.533 737.565 321.961 751.261 363.083Z" fill="black"/>
<path d="M537.753 679.549L498.209 705.188C508.168 757.344 489.178 797.243 478.437 810.672C464.524 836.555 411.067 890.226 308.546 897.844C206.025 905.462 137.434 846.322 115.953 815.8C88.6143 778.929 57.8092 686.874 153.3 613.621C248.791 540.368 362.491 570.245 407.405 594.34C414.728 589.535 444.02 568.937 444.02 568.937C358.488 522.055 269.246 525.961 235.317 533.775C168.434 550.379 42.4213 604.831 39.0626 730.826C36.0162 845.102 145.001 907.855 195.773 922.75C244.836 939.842 366.543 956.886 460.862 888.321C555.181 819.756 551.422 720.571 537.753 679.549Z" fill="black"/>
<path d="M742.247 679.549L781.791 705.188C771.832 757.344 790.822 797.243 801.563 810.672C815.476 836.555 868.933 890.226 971.454 897.844C1073.97 905.462 1142.57 846.322 1164.05 815.8C1191.39 778.929 1222.19 686.874 1126.7 613.621C1031.21 540.368 917.509 570.245 872.595 594.34C865.272 589.535 835.98 568.937 835.98 568.937C921.512 522.055 1010.75 525.961 1044.68 533.775C1111.57 550.379 1237.58 604.831 1240.94 730.826C1243.98 845.102 1135 907.855 1084.23 922.75C1035.16 939.842 913.457 956.886 819.138 888.321C724.819 819.756 728.578 720.571 742.247 679.549Z" fill="black"/>
<path d="M676.783 441.429C679.676 479.633 652.917 543.061 639.176 570C625.194 546 602.293 486.245 600.123 446.571C597.873 405.425 627.123 391.714 639.176 390C650.506 391.224 673.89 403.224 676.783 441.429Z" fill="black"/>
<path d="M676.783 729.286C679.672 839.441 652.957 1022.33 639.239 1100C625.28 1030.8 602.416 858.506 600.25 744.114C598.003 625.475 610.905 581 639.239 581C667.572 581 673.895 619.131 676.783 729.286Z" fill="black"/>
</svg>
